<?xml version="1.0" standalone="no"?>
<!DOCTYPE svg PUBLIC "-//W3C//DTD SVG 20010904//EN"
 "http://www.w3.org/TR/2001/REC-SVG-20010904/DTD/svg10.dtd">
<svg version="1.0" xmlns="http://www.w3.org/2000/svg"
 width="300.000000pt" height="218.000000pt" viewBox="0 0 300.000000 218.000000"
 preserveAspectRatio="xMidYMid meet">
<metadata>
Created by potrace 1.10, written by Peter Selinger 2001-2011
</metadata>
<g transform="translate(0.000000,218.000000) scale(0.100000,-0.100000)"
fill="#000000" stroke="none">
<path d="M1492 2111 c-20 -17 -22 -28 -22 -128 0 -111 6 -134 41 -146 9 -3 26
1 38 9 19 14 21 24 21 131 0 106 -2 117 -22 134 -11 11 -24 19 -28 19 -4 0
-17 -8 -28 -19z m43 -132 c0 -86 -3 -104 -15 -104 -12 0 -16 17 -18 85 -3 95
3 133 21 127 8 -2 12 -35 12 -108z"/>
<path d="M758 1809 c-37 -21 -21 -54 68 -143 47 -47 91 -86 98 -86 19 0 46 33
46 56 0 23 -158 184 -180 184 -8 0 -23 -5 -32 -11z m113 -96 c38 -38 69 -71
69 -75 0 -5 -10 -8 -21 -8 -27 0 -119 88 -119 113 0 10 -4 15 -10 12 -5 -3
-10 1 -10 9 0 29 23 16 91 -51z"/>
<path d="M2163 1739 c-46 -45 -83 -86 -84 -93 -4 -30 3 -44 26 -56 25 -13 29
-11 106 66 44 43 85 87 90 97 13 23 -13 67 -39 67 -9 0 -54 -37 -99 -81z m107
28 c0 -20 -136 -150 -149 -143 -19 12 -13 21 56 90 65 64 93 80 93 53z"/>
<path d="M1415 1770 c-11 -5 -34 -9 -52 -9 -17 -1 -35 -5 -38 -11 -3 -5 -17
-10 -30 -10 -27 0 -109 -42 -192 -98 -95 -64 -192 -182 -237 -287 -10 -22 -22
-48 -27 -57 -5 -10 -9 -28 -9 -41 0 -13 -4 -27 -10 -33 -12 -12 -26 -241 -16
-278 5 -22 12 -26 44 -26 20 -1 55 -7 77 -15 21 -8 41 -12 44 -9 3 2 -1 19 -7
37 -15 41 -16 198 -1 252 18 70 43 124 90 195 38 57 120 140 138 140 6 0 11 5
11 10 0 6 7 10 15 10 8 0 15 3 15 8 0 6 17 15 85 42 11 4 32 12 46 18 41 16
177 24 249 14 127 -18 241 -79 337 -180 56 -60 133 -201 133 -245 0 -15 5 -27
10 -27 17 0 13 -203 -5 -236 -19 -37 -5 -50 33 -30 17 9 49 16 71 16 22 0 43
5 47 11 4 7 7 62 6 123 -1 100 -6 135 -38 245 -24 82 -104 205 -183 280 -108
103 -203 150 -383 190 -55 13 -194 13 -223 1z m300 -47 c216 -60 398 -234 466
-446 37 -113 46 -287 18 -323 -5 -6 -23 -10 -41 -10 l-33 1 -6 120 c-7 127
-16 182 -30 191 -5 3 -9 13 -9 22 0 25 -69 133 -120 189 -59 63 -104 96 -181
132 -86 40 -121 49 -209 57 -76 6 -230 -16 -257 -38 -7 -5 -16 -7 -21 -4 -6 3
-15 -1 -22 -9 -7 -8 -18 -15 -24 -15 -16 0 -110 -70 -150 -112 -49 -50 -89
-108 -116 -163 -50 -106 -60 -151 -60 -268 l0 -106 -36 1 c-28 1 -38 7 -45 26
-23 59 0 245 43 352 66 167 232 329 396 386 136 48 303 54 437 17z"/>
<path d="M1514 1493 c-3 -10 -19 -45 -35 -79 -16 -33 -29 -63 -29 -67 0 -4 34
-7 75 -7 75 0 88 7 60 30 -8 7 -15 21 -15 31 0 11 -4 19 -9 19 -5 0 -12 18
-16 40 -8 45 -22 60 -31 33z"/>
<path d="M1596 1293 c-3 -3 1 -18 9 -33 8 -15 33 -74 55 -131 23 -57 47 -107
53 -111 17 -10 32 8 20 24 -5 7 -32 66 -59 130 -45 108 -63 136 -78 121z"/>
<path d="M1404 1233 c-13 -29 -35 -78 -49 -108 -14 -31 -25 -60 -25 -65 0 -6
-4 -10 -10 -10 -5 0 -10 -7 -10 -15 0 -12 29 -15 171 -17 94 -2 172 -1 175 1
2 2 -3 16 -10 30 -19 34 -48 102 -76 177 l-24 61 -59 -1 -59 -1 -24 -52z m127
7 c24 -44 60 -131 65 -158 l7 -32 -118 0 -117 0 6 33 c11 56 69 166 91 170 34
8 58 3 66 -13z"/>
<path d="M445 1060 c-15 -17 -16 -24 -7 -45 6 -14 16 -25 22 -25 5 -1 57 -1
115 -1 58 0 111 0 118 1 7 0 18 9 25 21 11 17 11 25 -3 45 -15 23 -20 24 -134
24 -105 0 -120 -2 -136 -20z m235 -25 c0 -12 -18 -15 -99 -15 -91 0 -121 7
-104 24 3 3 51 6 105 6 80 0 98 -3 98 -15z"/>
<path d="M2331 1067 c-16 -16 -13 -53 4 -67 13 -11 104 -14 252 -10 18 0 27
45 13 69 -10 20 -18 22 -135 20 -72 -1 -128 -6 -134 -12z m239 -32 c0 -12 -18
-15 -105 -15 -96 0 -117 5 -98 23 3 4 51 7 105 7 80 0 98 -3 98 -15z"/>
<path d="M1299 933 c-1 -5 -2 -44 -3 -88 -1 -76 0 -82 29 -115 16 -19 38 -46
47 -60 16 -24 17 -19 17 123 l1 147 -45 0 c-25 0 -46 -3 -46 -7z"/>
<path d="M1460 934 c-1 -2 -1 -88 -1 -191 l0 -188 65 -2 66 -1 0 193 0 194
-65 -1 c-36 0 -65 -2 -65 -4z m84 -50 c8 -21 8 -213 0 -253 -5 -21 -12 -31
-25 -31 -18 0 -19 10 -19 143 0 79 3 147 7 150 11 12 31 7 37 -9z"/>
<path d="M1659 938 c-5 -24 -4 -278 1 -276 5 2 26 26 49 55 41 52 41 53 41
138 l0 85 -45 0 c-25 0 -45 -1 -46 -2z"/>
<path d="M707 854 c-4 -4 17 -53 54 -126 5 -10 9 -27 9 -37 0 -11 5 -23 10
-26 6 -3 10 -17 10 -29 0 -22 4 -24 88 -29 174 -12 243 -20 248 -28 3 -5 17
-9 32 -9 28 0 96 -21 108 -33 4 -4 16 -7 26 -7 10 0 18 -4 18 -10 0 -5 6 -10
13 -10 7 0 23 -9 35 -20 21 -20 42 -26 42 -12 -1 12 -140 163 -193 209 -28 24
-57 43 -64 43 -7 0 -13 5 -13 10 0 6 -7 10 -15 10 -15 0 -25 4 -72 28 -13 7
-32 12 -42 12 -11 0 -22 4 -25 9 -6 9 -19 11 -146 29 -36 6 -77 14 -91 20 -15
6 -29 9 -32 6z m246 -84 c104 -29 189 -74 247 -129 59 -57 61 -54 -25 -34 -41
9 -153 24 -241 32 -49 4 -95 11 -101 14 -13 8 -53 109 -53 134 0 13 9 14 55 8
30 -3 84 -15 118 -25z"/>
<path d="M2300 848 c-22 -9 -65 -17 -183 -35 -20 -3 -40 -9 -43 -14 -3 -5 -18
-9 -33 -9 -15 0 -31 -4 -36 -8 -6 -5 -26 -15 -45 -22 -72 -28 -174 -114 -272
-231 -57 -67 -52 -76 17 -29 24 17 50 30 59 30 8 0 17 4 20 9 3 5 18 12 33 15
16 4 46 12 68 17 53 14 158 27 273 35 74 5 95 10 99 23 3 9 9 25 13 36 5 11
16 42 25 69 9 27 23 62 33 78 20 34 8 50 -28 36z m-34 -80 c-4 -18 -17 -53
-30 -78 l-24 -45 -88 -6 c-90 -7 -192 -21 -274 -38 -25 -5 -47 -7 -49 -5 -2 2
1 4 7 4 7 0 12 6 12 14 0 14 49 52 63 48 4 -1 7 4 7 11 0 14 116 73 176 89 96
25 151 36 178 37 27 1 28 -1 22 -31z"/>
<path d="M440 522 c0 -5 21 -23 66 -59 l41 -32 274 -5 c279 -5 366 -11 383
-27 6 -5 20 -9 33 -9 13 0 31 -4 41 -9 9 -5 33 -16 54 -25 20 -9 55 -32 78
-51 42 -35 60 -43 60 -26 0 11 -111 126 -145 151 -20 14 -58 34 -100 51 -73
28 -219 41 -512 42 -150 1 -273 1 -273 -1z m379 -43 c5 7 20 5 46 -4 37 -13
27 -14 -125 -11 -91 2 -167 5 -170 6 -19 9 80 14 154 7 59 -6 91 -5 95 2z
m196 -10 c12 -5 -4 -6 -40 -4 -75 4 -73 3 -55 14 14 10 57 5 95 -10z m138 -19
c9 -10 9 -11 -2 -5 -7 4 -36 11 -65 16 l-51 8 53 -3 c29 -2 59 -9 65 -16z"/>
<path d="M2070 518 c-25 -3 -71 -7 -102 -7 -31 -1 -60 -5 -63 -11 -3 -5 -16
-10 -27 -10 -22 0 -89 -21 -98 -30 -3 -3 -18 -12 -34 -20 -37 -19 -156 -138
-156 -157 0 -20 12 -16 45 15 17 15 53 38 80 51 28 13 58 27 67 32 10 5 26 9
36 9 10 0 22 4 27 9 18 16 106 22 386 27 l275 5 30 25 c16 14 41 33 57 42 15
9 27 19 27 22 0 8 -497 6 -550 -2z m75 -48 c-3 -5 -35 -9 -70 -9 -36 1 -62 5
-59 10 3 5 34 9 70 9 40 0 63 -4 59 -10z m130 0 c-3 -5 -17 -10 -30 -10 -13 0
-27 5 -30 10 -4 6 8 10 30 10 22 0 34 -4 30 -10z m200 0 c-4 -7 -35 -10 -75
-8 -88 4 -80 18 11 18 46 0 68 -4 64 -10z"/>
<path d="M360 343 c0 -6 21 -21 48 -34 26 -13 56 -32 66 -41 11 -10 26 -18 33
-18 7 0 13 -4 13 -10 0 -5 5 -10 11 -10 5 0 37 -18 69 -40 32 -22 62 -40 65
-40 3 0 15 -9 27 -20 21 -19 36 -20 382 -20 199 0 371 -3 384 -6 71 -20 -41
105 -139 153 -148 72 -184 77 -564 78 -181 1 -345 5 -362 10 -20 4 -33 3 -33
-2z m616 -44 c113 -1 224 -25 312 -66 61 -29 115 -71 106 -84 -3 -5 -145 -9
-328 -9 l-323 0 -49 32 c-27 17 -75 47 -106 67 -31 20 -57 42 -58 48 0 9 45
13 178 15 97 2 180 2 183 1 4 -2 42 -3 85 -4z"/>
<path d="M2616 338 c-14 -8 -89 -9 -255 -5 -340 8 -488 -6 -583 -54 -10 -5
-23 -9 -28 -9 -31 0 -175 -119 -182 -150 -2 -8 112 -11 380 -10 366 1 385 2
405 20 11 11 25 20 29 20 5 0 14 5 21 10 35 29 243 158 270 167 9 3 17 9 17
14 0 13 -51 11 -74 -3z m-106 -53 c0 -9 -66 -56 -167 -119 l-43 -26 -330 0
c-324 0 -330 0 -318 19 7 11 39 36 72 56 56 33 89 45 201 73 54 13 585 11 585
-3z"/>
</g>
</svg>
