<?xml version="1.0" standalone="no"?>
<!DOCTYPE svg PUBLIC "-//W3C//DTD SVG 20010904//EN"
 "http://www.w3.org/TR/2001/REC-SVG-20010904/DTD/svg10.dtd">
<svg version="1.0" xmlns="http://www.w3.org/2000/svg"
 width="300.000000pt" height="221.000000pt" viewBox="0 0 300.000000 221.000000"
 preserveAspectRatio="xMidYMid meet">
<metadata>
Created by potrace 1.10, written by Peter Selinger 2001-2011
</metadata>
<g transform="translate(0.000000,221.000000) scale(0.100000,-0.100000)"
fill="#000000" stroke="none">
<path d="M2062 2153 c-16 -3 -22 -9 -18 -20 3 -8 6 -17 6 -19 0 -2 5 -4 11 -4
8 0 8 5 -1 15 -10 12 -9 15 6 16 11 1 22 1 27 0 4 0 7 4 7 9 0 6 -3 9 -7 9 -5
-1 -18 -4 -31 -6z"/>
<path d="M1530 1970 l0 -130 -55 0 -55 0 -1 -62 0 -63 -60 -39 c-66 -42 -119
-112 -140 -183 -7 -24 -18 -43 -26 -43 -8 0 -13 -11 -13 -27 l0 -28 377 2 378
3 3 23 c2 18 -3 26 -17 30 -12 3 -21 13 -21 22 0 9 -12 41 -27 71 -29 60 -93
125 -149 151 -35 17 -35 17 -33 78 l3 60 -57 3 c-50 3 -57 6 -57 23 0 19 5 20
85 17 l85 -3 0 88 0 87 -85 0 -85 0 6 25 c6 23 3 25 -25 25 l-31 0 0 -130z
m166 -9 l2 -31 -59 0 c-58 0 -59 0 -59 28 0 16 2 31 4 33 2 2 28 3 57 3 53 -2
54 -2 55 -33z m-56 -203 c0 -22 -4 -23 -84 -23 -81 0 -84 1 -82 22 1 22 5 23
84 23 78 0 82 -1 82 -22z m-156 -54 c13 -5 14 -9 5 -20 -9 -11 -15 -11 -25 -3
-27 22 -14 36 20 23z m176 -8 c0 -17 -27 -29 -35 -16 -4 6 -3 15 0 20 9 15 35
12 35 -4z m-73 -28 c30 -33 49 -75 62 -136 18 -87 24 -82 -95 -82 l-106 0 7
33 c18 91 40 151 65 178 34 35 40 36 67 7z m-153 -55 c-13 -32 -26 -82 -30
-110 l-6 -53 -69 0 c-38 0 -69 2 -69 5 0 10 42 89 62 118 18 25 113 97 129 97
4 0 -4 -26 -17 -57z m264 40 c50 -31 103 -87 128 -135 13 -26 24 -52 24 -58 0
-7 -24 -10 -67 -8 l-67 3 -12 71 c-6 38 -19 84 -28 102 -25 48 -22 52 22 25z"/>
<path d="M2470 1776 c0 -8 -8 -17 -17 -19 -17 -4 -17 -5 0 -6 9 0 17 -5 17
-10 0 -5 -8 -12 -17 -14 -14 -4 -13 -5 4 -6 18 -1 21 4 21 34 0 19 -2 35 -4
35 -2 0 -4 -6 -4 -14z"/>
<path d="M873 1749 c4 -13 1 -19 -6 -16 -7 2 -21 1 -32 -4 -15 -6 -11 -7 15
-6 28 2 35 7 36 25 1 12 -3 22 -9 22 -5 0 -7 -9 -4 -21z"/>
<path d="M1081 1706 c-9 -11 -7 -15 9 -19 18 -5 19 -3 8 10 -11 14 -10 16 15
11 15 -3 27 -1 27 3 0 14 -47 10 -59 -5z"/>
<path d="M2055 1622 c-18 -13 -17 -42 2 -41 10 0 13 3 6 5 -18 8 -4 34 14 27
11 -4 14 -2 9 5 -8 14 -17 15 -31 4z"/>
<path d="M1204 1348 c-3 -5 -4 -44 -2 -86 l3 -77 -105 -37 c-58 -20 -109 -38
-114 -40 -5 -2 -3 -14 3 -27 12 -22 22 -23 64 -6 13 5 17 2 17 -12 0 -18 -10
-19 -290 -15 l-290 5 0 -32 c0 -24 4 -31 20 -31 20 0 20 -7 20 -370 0 -363 0
-370 -20 -370 -16 0 -20 -7 -20 -30 l0 -30 260 0 260 0 0 30 c0 27 -3 30 -30
30 l-30 0 0 305 0 305 -130 0 -129 0 2 -305 2 -305 -52 0 -53 0 0 370 0 370
185 0 185 0 0 -45 0 -45 50 0 50 0 0 -380 0 -380 495 0 495 0 0 380 0 380 45
0 45 0 0 45 0 45 195 0 196 0 -3 -290 -3 -290 28 0 27 0 0 290 0 290 25 0 c21
0 25 5 25 31 l0 32 -300 -5 c-285 -4 -300 -4 -300 14 0 21 -2 21 40 7 26 -9
34 -9 41 2 18 29 6 38 -101 76 l-110 38 0 89 c0 76 -2 87 -16 82 -9 -3 -22 -6
-30 -6 -12 0 -15 -13 -13 -67 1 -38 -1 -69 -5 -71 -3 -1 -24 3 -46 9 l-40 12
0 59 0 58 -31 0 c-31 0 -32 0 -27 -45 6 -51 4 -53 -65 -29 -42 14 -47 19 -47
45 0 25 -4 29 -28 29 -26 0 -28 -3 -24 -28 3 -26 0 -29 -51 -45 -29 -9 -57
-17 -60 -17 -4 0 -4 20 0 45 l6 45 -32 0 -31 0 0 -57 0 -58 -50 -17 -50 -16 0
73 c0 70 -1 73 -25 77 -14 3 -28 1 -31 -4z m704 -225 c67 -24 72 -28 72 -54
l0 -29 -430 0 -430 0 0 29 c0 28 4 30 138 75 75 25 172 59 215 74 l79 28 141
-49 c78 -27 175 -60 215 -74z m182 -153 c0 -20 -7 -20 -535 -20 -528 0 -535 0
-535 20 0 20 7 20 535 20 528 0 535 0 535 -20z m-910 -110 c0 -39 -1 -40 -35
-40 -34 0 -35 1 -35 40 0 39 1 40 35 40 34 0 35 -1 35 -40z m150 -315 l0 -355
-50 0 -50 0 0 355 0 355 50 0 50 0 0 -355z m120 315 c0 -38 -1 -40 -32 -40
-32 0 -33 2 -33 40 0 38 1 40 33 40 31 0 32 -2 32 -40z m159 -315 l0 -355 -55
0 -54 0 0 355 0 355 55 0 54 0 0 -355z m111 315 c0 -38 -2 -40 -30 -40 -28 0
-30 2 -30 40 0 38 2 40 30 40 28 0 30 -2 30 -40z m160 -316 l0 -355 -50 3 -51
3 -2 353 -2 352 53 0 52 0 0 -356z m110 316 c0 -38 -2 -40 -30 -40 -28 0 -30
2 -30 40 0 38 2 40 30 40 28 0 30 -2 30 -40z m-1090 -97 l0 -38 -75 0 -75 0 0
38 0 37 75 0 75 0 0 -37z m280 -218 l0 -225 -35 0 -35 0 0 225 0 225 35 0 35
0 0 -225z m270 -1 l0 -225 -30 3 -31 3 -2 223 -2 222 33 0 32 0 0 -226z m270
1 l0 -225 -30 0 -30 0 0 225 0 225 30 0 30 0 0 -225z m270 0 l0 -225 -30 0
-30 0 0 225 0 225 30 0 30 0 0 -225z m-1090 -85 l0 -210 -75 0 -75 0 0 210 0
210 75 0 75 0 0 -210z m280 -230 c0 -39 -1 -40 -35 -40 -34 0 -35 1 -35 40 0
39 1 40 35 40 34 0 35 -1 35 -40z m270 -1 c0 -39 -1 -40 -32 -37 -28 3 -31 6
-32 41 -1 35 0 37 32 37 31 0 32 -1 32 -41z m270 1 c0 -38 -2 -40 -30 -40 -28
0 -30 2 -30 40 0 38 2 40 30 40 28 0 30 -2 30 -40z m270 0 c0 -38 -2 -40 -30
-40 -28 0 -30 2 -30 40 0 38 2 40 30 40 28 0 30 -2 30 -40z"/>
<path d="M1011 568 c0 -178 4 -304 9 -293 12 28 11 593 0 600 -6 4 -10 -111
-9 -307z"/>
<path d="M2080 858 c-3 -240 0 -581 4 -585 3 -4 6 129 6 295 0 166 -2 302 -5
302 -3 0 -5 -6 -5 -12z"/>
<path d="M2160 853 c0 -5 0 -142 0 -305 l1 -298 -36 0 c-32 0 -35 -2 -35 -30
l0 -30 270 0 270 0 0 30 c0 25 -4 30 -25 30 -22 0 -25 4 -25 40 0 37 -2 40
-29 40 -28 0 -29 -1 -24 -40 l6 -40 -62 0 -62 0 3 305 3 305 -127 0 c-71 0
-128 -3 -128 -7z m200 -90 l0 -38 -75 0 -75 0 0 38 0 37 75 0 75 0 0 -37z m0
-303 l0 -210 -75 0 -75 0 0 210 0 210 75 0 75 0 0 -210z"/>
</g>
</svg>
