<?xml version="1.0" standalone="no"?>
<!DOCTYPE svg PUBLIC "-//W3C//DTD SVG 20010904//EN"
 "http://www.w3.org/TR/2001/REC-SVG-20010904/DTD/svg10.dtd">
<svg version="1.0" xmlns="http://www.w3.org/2000/svg"
 width="300.000000pt" height="262.000000pt" viewBox="0 0 300.000000 262.000000"
 preserveAspectRatio="xMidYMid meet">
<metadata>
Created by potrace 1.10, written by Peter Selinger 2001-2011
</metadata>
<g transform="translate(0.000000,262.000000) scale(0.100000,-0.100000)"
fill="#000000" stroke="none">
<path d="M1096 2480 c-91 -15 -246 -72 -340 -126 -90 -52 -96 -65 -18 -43 44
12 321 23 547 22 201 -1 379 -79 535 -233 161 -160 239 -343 240 -562 l0 -107
81 52 81 51 -7 80 c-19 216 -122 434 -280 591 -123 124 -278 212 -445 255 -96
25 -297 35 -394 20z m325 -36 c240 -45 470 -193 594 -381 21 -32 47 -70 57
-85 10 -15 18 -30 18 -33 0 -3 9 -24 19 -48 34 -75 68 -201 71 -262 4 -83 2
-89 -39 -112 l-39 -23 -7 68 c-13 137 -34 215 -87 327 -79 166 -239 319 -413
395 -27 12 -64 28 -82 35 -59 26 -158 37 -308 35 -235 -4 -360 -1 -350 8 25
22 190 74 270 85 73 10 220 6 296 -9z"/>
<path d="M1175 2301 c43 -20 156 -51 188 -51 79 0 264 -60 360 -116 33 -19 61
-33 63 -31 6 6 -131 99 -181 125 -94 47 -206 74 -330 78 -80 3 -113 1 -100 -5z"/>
<path d="M830 2281 c-216 -24 -408 -113 -566 -263 -109 -104 -197 -235 -237
-352 -22 -64 -22 -83 -2 -66 8 6 17 22 21 33 4 12 24 58 46 102 63 128 130
210 263 324 31 27 125 84 175 108 129 60 250 85 410 85 469 0 877 -372 916
-836 l7 -73 -37 -23 c-20 -12 -39 -20 -42 -17 -3 3 -11 52 -19 110 -24 183
-79 312 -191 445 -110 130 -257 226 -419 273 -109 32 -286 36 -402 11 -97 -22
-214 -71 -289 -121 -25 -17 -47 -31 -49 -31 -12 0 -139 -136 -177 -190 -98
-138 -137 -259 -145 -441 -6 -138 11 -257 48 -339 12 -25 28 -61 37 -80 55
-124 207 -284 338 -355 67 -37 71 -42 48 -59 -55 -42 -60 -42 -126 -1 -34 22
-74 48 -87 59 -66 54 -132 121 -157 159 -16 23 -36 50 -45 59 -16 19 -109 202
-109 217 0 5 -7 14 -15 21 -12 10 -15 9 -15 -5 0 -27 50 -145 94 -220 57 -96
219 -258 319 -318 l78 -47 85 52 84 51 -50 18 c-166 58 -346 230 -427 405 -63
139 -88 326 -63 481 40 254 222 493 457 601 213 98 473 99 680 2 213 -99 371
-285 444 -520 18 -60 23 -99 24 -193 0 -78 4 -116 11 -113 5 2 42 25 82 50
l72 47 -6 62 c-33 354 -245 658 -561 804 -146 67 -347 101 -503 84z"/>
<path d="M838 2099 c-130 -13 -272 -70 -391 -156 -56 -41 -56 -56 0 -20 56 35
168 82 248 103 56 15 104 19 240 18 155 -1 178 -3 260 -28 49 -15 128 -47 174
-71 47 -24 86 -43 88 -41 1 1 -23 21 -55 45 -157 116 -359 169 -564 150z"/>
<path d="M880 1859 c0 -35 -2 -37 -41 -43 -56 -9 -107 -37 -151 -83 -64 -66
-88 -160 -68 -261 22 -108 96 -188 212 -230 l48 -17 0 -154 0 -155 -39 38
c-22 22 -49 61 -61 87 -12 29 -25 46 -33 44 -6 -3 -46 -9 -87 -13 -86 -8 -86
-8 -49 -107 37 -100 116 -169 223 -196 44 -11 46 -13 46 -46 0 -19 3 -33 8
-31 7 3 96 60 254 163 85 55 94 64 111 110 26 72 25 178 -3 243 -34 78 -118
142 -228 171 l-42 12 0 139 c0 77 4 140 8 140 16 0 63 -57 71 -86 5 -16 13
-28 18 -27 6 1 42 5 79 9 38 4 74 9 81 13 19 10 -30 118 -74 163 -36 37 -122
78 -163 78 -16 0 -20 7 -20 38 l0 37 -50 0 -50 0 0 -36z m75 -28 c11 -23 29
-34 80 -51 36 -12 80 -34 97 -48 31 -26 75 -108 64 -119 -3 -4 -27 -9 -52 -13
-35 -5 -49 -4 -57 8 -34 43 -77 82 -90 82 -36 0 -47 -39 -47 -169 0 -114 2
-127 22 -148 12 -13 28 -23 36 -23 23 0 156 -66 174 -86 10 -11 27 -42 39 -68
18 -41 21 -62 17 -125 -8 -129 -7 -128 -242 -273 l-79 -49 -22 21 c-11 11 -44
27 -71 35 -28 8 -69 28 -92 45 -63 45 -124 165 -94 183 4 3 28 8 53 12 l47 7
26 -49 c15 -26 42 -59 62 -72 31 -21 37 -23 59 -11 25 13 25 15 25 152 0 77
-5 148 -10 158 -6 11 -43 35 -83 53 -124 58 -172 136 -166 274 4 67 8 84 34
122 37 54 69 79 131 100 57 19 88 39 97 64 9 25 24 21 42 -12z"/>
<path d="M827 1675 c-95 -65 -89 -200 11 -258 49 -29 51 -12 3 30 -36 32 -44
46 -48 84 -6 55 13 97 57 129 l30 21 0 -131 c0 -101 3 -131 13 -128 8 3 13 39
15 121 2 106 1 118 -18 137 -11 11 -21 20 -23 20 -1 0 -19 -11 -40 -25z"/>
<path d="M966 1198 c-23 -33 -23 -254 0 -287 42 -59 162 46 166 146 2 58 -36
119 -94 149 -38 19 -54 18 -72 -8z m113 -64 c27 -35 28 -105 1 -148 -10 -18
-37 -42 -60 -55 l-40 -22 0 146 0 145 39 -20 c22 -10 49 -31 60 -46z"/>
<path d="M2460 1784 c0 -5 20 -29 45 -54 24 -25 44 -48 45 -52 0 -3 -12 -13
-27 -21 -16 -8 -156 -96 -313 -195 -157 -100 -328 -208 -380 -240 -52 -33
-183 -115 -290 -182 -107 -68 -235 -149 -285 -180 -49 -31 -202 -128 -340
-215 -137 -87 -331 -207 -430 -268 -304 -186 -327 -208 -72 -68 89 48 212 114
272 146 61 32 175 93 255 135 80 43 246 130 370 195 124 65 261 137 305 160
359 191 1035 545 1039 545 2 0 12 -24 21 -52 9 -29 19 -59 21 -67 3 -8 49 65
104 163 54 97 108 192 120 211 l22 35 -225 0 c-124 0 -232 3 -241 6 -9 3 -16
2 -16 -2z m410 -48 c0 -12 -58 -123 -127 -245 l-25 -43 -28 31 c-16 17 -36 31
-45 31 -9 0 -82 -35 -163 -77 -81 -42 -185 -96 -232 -121 -110 -57 -279 -146
-355 -187 -33 -18 -125 -66 -205 -108 -80 -41 -174 -90 -210 -110 -36 -19
-137 -72 -225 -117 -88 -45 -166 -87 -173 -92 -7 -6 -15 -9 -17 -6 -6 6 171
126 276 188 15 8 115 71 223 140 108 69 205 130 214 135 10 6 31 19 47 30 17
11 39 25 50 32 70 42 545 341 617 389 36 25 69 52 72 60 3 8 -1 28 -9 44 -8
16 -15 31 -15 35 0 3 74 5 165 5 133 0 165 -3 165 -14z"/>
<path d="M2525 1366 c-55 -29 -152 -81 -215 -114 l-115 -61 -3 -445 -2 -446
227 0 228 0 -3 546 c-1 301 -6 553 -10 560 -5 10 -31 0 -107 -40z m85 -516
c-1 -393 -4 -500 -14 -509 -19 -16 -353 -14 -363 2 -9 15 -14 736 -5 790 7 38
11 42 92 85 226 119 272 142 281 137 5 -4 9 -207 9 -505z"/>
<path d="M1813 992 l-223 -117 0 -287 0 -288 225 0 225 0 0 389 c0 214 3 396
6 405 3 9 2 16 -2 15 -5 0 -109 -53 -231 -117z m197 -297 c0 -318 -1 -345 -17
-353 -10 -5 -91 -10 -180 -10 -128 -2 -165 1 -176 12 -12 12 -14 60 -15 251 0
204 2 238 17 255 9 10 59 41 111 68 52 28 124 66 160 86 109 60 100 87 100
-309z"/>
<path d="M1415 784 c-11 -8 -111 -62 -222 -120 l-203 -105 0 -130 0 -129 230
0 230 0 0 250 c0 138 -3 250 -7 250 -5 0 -17 -7 -28 -16z m-5 -243 c0 -148 -3
-191 -14 -200 -22 -18 -342 -14 -361 5 -11 11 -13 36 -11 99 1 47 6 89 12 94
5 5 63 37 129 71 66 35 143 76 170 91 28 15 56 28 63 28 9 1 12 -43 12 -188z"/>
<path d="M690 400 c-80 -43 -155 -81 -167 -84 -13 -4 -23 -11 -23 -17 0 -7 9
-9 23 -5 12 3 90 6 172 6 l150 0 0 90 c0 50 -2 90 -5 89 -3 0 -70 -36 -150
-79z m117 -19 c6 -40 -14 -53 -74 -48 -30 2 -56 7 -59 10 -7 7 107 67 120 63
5 -1 11 -13 13 -25z"/>
</g>
</svg>
