<?xml version="1.0" standalone="no"?>
<!DOCTYPE svg PUBLIC "-//W3C//DTD SVG 20010904//EN"
 "http://www.w3.org/TR/2001/REC-SVG-20010904/DTD/svg10.dtd">
<svg version="1.0" xmlns="http://www.w3.org/2000/svg"
 width="295.000000pt" height="196.000000pt" viewBox="0 0 295.000000 196.000000"
 preserveAspectRatio="xMidYMid meet">
<metadata>
Created by potrace 1.10, written by Peter Selinger 2001-2011
</metadata>
<g transform="translate(0.000000,196.000000) scale(0.100000,-0.100000)"
fill="#000000" stroke="none">
<path d="M1423 1669 c-17 -11 -41 -41 -53 -67 -20 -42 -22 -59 -18 -184 l3
-138 -247 0 c-290 0 -278 4 -278 -100 0 -60 -5 -80 -45 -166 l-46 -98 1 -319
1 -320 -43 -1 c-37 -1 -43 -4 -46 -23 l-3 -23 911 0 c826 0 911 1 917 16 8 21
-15 35 -49 31 l-28 -4 0 246 0 246 -71 71 -72 72 -52 -5 -52 -5 -6 73 c-8 94
-39 143 -114 179 l-52 25 -1 157 c0 86 -3 164 -6 173 -15 38 -105 58 -157 34
-40 -18 -47 -49 -47 -213 0 -124 -3 -156 -15 -166 -8 -7 -15 -11 -15 -9 0 2
-1 103 -3 224 -2 217 -2 220 -27 253 -38 51 -67 62 -167 62 -71 0 -94 -4 -120
-21z m207 -34 c58 -30 60 -38 60 -286 0 -189 -2 -228 -15 -232 -8 -4 -24 -25
-35 -48 -19 -37 -22 -57 -21 -173 l2 -132 -32 -23 c-17 -13 -37 -38 -45 -57
-26 -63 -34 -39 -34 106 0 139 0 140 -35 212 l-35 73 58 3 c84 3 100 9 118 43
13 26 13 36 3 60 -17 42 -36 49 -133 49 l-86 0 0 50 0 50 94 0 c90 0 96 1 115
26 28 36 26 60 -8 95 -28 28 -34 29 -115 29 l-86 0 0 40 c0 54 24 98 63 115
43 19 131 19 167 0z m288 -141 c18 -12 22 -25 22 -70 l0 -54 -65 0 -65 0 0 50
c0 78 52 114 108 74z m-340 -88 c6 -28 -15 -36 -100 -36 l-78 0 0 30 0 31 87
-3 c77 -3 88 -5 91 -22z m362 -156 l0 -80 -65 0 -65 0 0 80 0 80 65 0 65 0 0
-80z m-590 -61 l0 -39 -240 0 -240 0 0 40 0 40 233 2 c127 2 235 2 240 0 4 -2
7 -21 7 -43z m224 -19 c5 -5 6 -16 3 -24 -5 -13 -23 -16 -86 -16 -80 0 -91 5
-91 43 0 14 159 11 174 -3z m-182 -57 c23 -21 23 -29 -2 -60 l-20 -26 0 36 c0
19 -3 42 -6 51 -8 21 5 20 28 -1z m634 -9 c51 -38 68 -70 72 -139 l4 -65 -221
0 -221 0 0 50 c0 80 44 150 106 170 16 5 75 8 131 7 85 -2 107 -6 129 -23z
m-684 1 c5 -5 -41 -110 -73 -168 -6 -11 -9 -143 -9 -338 l2 -319 -236 -3 -236
-2 0 318 0 318 206 -2 c144 -1 208 1 217 10 27 27 -11 33 -207 31 -108 0 -196
2 -196 6 0 4 16 40 35 81 l35 73 228 0 c126 0 231 -2 234 -5z m82 -88 c3 -18
15 -51 26 -72 17 -33 20 -59 20 -168 l0 -129 -31 -29 c-17 -16 -33 -29 -35
-29 -2 0 -4 104 -4 230 0 212 8 280 24 197z m-62 -369 c-1 -200 -7 -367 -12
-372 -5 -5 -16 -6 -24 -3 -14 6 -16 45 -16 327 0 195 4 327 10 338 5 9 14 29
20 45 5 15 13 27 17 27 5 0 7 -163 5 -362z m619 175 l-41 -35 0 -129 0 -129
-100 0 -100 0 0 58 c0 47 4 63 21 78 22 20 59 85 59 104 0 6 -31 10 -80 10
l-80 0 0 40 0 40 173 2 c94 2 176 1 181 -1 5 -2 -10 -19 -33 -38z m311 -20
l58 -57 0 -236 0 -235 -182 2 -183 2 -3 238 -2 237 52 53 52 53 75 0 75 0 58
-57z m-548 -84 c-10 -12 -36 -35 -56 -51 -31 -24 -44 -28 -68 -23 -37 8 -38
24 -2 57 30 29 48 35 106 37 l39 1 -19 -21z m-98 -134 c46 -35 68 -86 61 -143
-6 -54 -31 -90 -83 -119 -49 -29 -89 -29 -139 0 -54 31 -85 79 -85 134 0 132
143 207 246 128z m292 -200 l-3 -105 -153 -2 c-106 -2 -148 0 -137 7 67 40
104 99 105 168 l0 37 95 0 96 0 -3 -105z m-488 -85 l34 -30 -42 0 c-40 0 -42
1 -42 30 0 37 6 37 50 0z"/>
<path d="M838 713 c-23 -28 5 -33 183 -33 153 0 181 2 186 15 3 9 3 18 1 21
-3 2 -85 6 -182 7 -129 1 -180 -1 -188 -10z"/>
<path d="M833 605 c-11 -29 12 -36 118 -33 96 3 104 4 104 23 0 19 -8 20 -108
23 -91 2 -108 0 -114 -13z"/>
<path d="M835 503 c-10 -26 5 -33 75 -33 70 0 85 7 75 33 -5 10 -24 14 -75 14
-51 0 -70 -4 -75 -14z"/>
<path d="M2143 794 c-3 -8 1 -22 9 -30 13 -13 16 -13 27 0 7 9 11 23 7 31 -7
20 -35 19 -43 -1z"/>
<path d="M2134 692 c4 -13 -3 -25 -24 -40 -24 -18 -30 -30 -30 -60 0 -47 5
-54 60 -85 25 -14 45 -31 45 -39 0 -20 -40 -21 -69 -3 -25 17 -26 16 -36 -11
-14 -35 -7 -52 25 -60 16 -4 25 -13 25 -25 0 -14 7 -19 25 -19 36 0 40 3 38
23 -2 10 7 22 21 29 35 15 51 58 37 101 -9 25 -23 39 -56 56 -47 23 -60 51
-25 51 11 0 29 -5 40 -12 23 -15 28 -11 36 29 5 27 3 31 -20 37 -17 4 -26 13
-26 26 0 16 -7 20 -36 20 -30 0 -34 -3 -30 -18z"/>
<path d="M2944 860 c0 -74 1 -105 3 -67 2 37 2 97 0 135 -2 37 -3 6 -3 -68z"/>
</g>
</svg>
