<?xml version="1.0" standalone="no"?>
<!DOCTYPE svg PUBLIC "-//W3C//DTD SVG 20010904//EN"
 "http://www.w3.org/TR/2001/REC-SVG-20010904/DTD/svg10.dtd">
<svg version="1.0" xmlns="http://www.w3.org/2000/svg"
 width="296.000000pt" height="290.000000pt" viewBox="0 0 296.000000 290.000000"
 preserveAspectRatio="xMidYMid meet">
<metadata>
Created by potrace 1.10, written by Peter Selinger 2001-2011
</metadata>
<g transform="translate(0.000000,290.000000) scale(0.100000,-0.100000)"
fill="#000000" stroke="none">
<path d="M1450 2394 c-146 -27 -258 -68 -359 -131 -74 -47 -217 -194 -260
-266 -51 -86 -97 -212 -111 -300 -19 -119 -8 -293 24 -390 14 -42 26 -83 26
-90 0 -6 -52 -126 -116 -265 -64 -139 -114 -255 -112 -258 3 -2 65 -27 139
-54 74 -28 163 -61 199 -75 113 -43 240 -90 392 -146 l146 -54 26 -105 c15
-58 26 -113 26 -124 0 -10 5 -16 13 -13 6 2 152 48 322 101 171 53 337 105
370 115 33 11 130 40 215 66 85 26 159 51 163 55 5 4 -7 48 -26 96 -20 49 -59
150 -88 224 -29 74 -74 189 -99 254 -47 119 -48 119 -30 150 10 17 31 69 46
116 27 80 29 94 29 255 0 165 -1 173 -32 260 -46 131 -98 217 -186 312 -122
129 -244 201 -411 244 -78 20 -251 33 -306 23z m207 -35 c120 -17 219 -53 333
-122 51 -31 68 -45 137 -115 63 -63 74 -86 51 -112 -7 -8 -4 -7 8 3 24 20 48
23 41 5 -2 -7 11 -31 30 -52 35 -42 40 -56 21 -56 -7 0 -5 -7 5 -17 32 -37 66
-166 74 -285 8 -112 7 -129 -16 -233 -16 -70 -17 -73 -44 -140 -39 -93 -36
-96 -118 120 -60 158 -68 174 -96 192 -18 12 -29 12 -65 2 -24 -7 -47 -12 -51
-11 -4 1 -16 -2 -27 -8 -17 -9 -30 0 -92 64 -47 49 -90 82 -122 95 -39 17 -47
25 -40 39 14 33 6 64 -28 99 -41 43 -76 62 -119 64 -83 5 -157 -31 -239 -117
-34 -35 -59 -54 -69 -51 -135 42 -152 46 -158 32 -3 -8 -9 -13 -13 -10 -4 3
-31 -48 -60 -113 -29 -64 -70 -153 -90 -197 -21 -44 -49 -105 -63 -137 -14
-31 -30 -59 -35 -62 -8 -5 -46 90 -58 149 -3 17 -8 80 -11 140 -6 128 16 247
65 355 16 36 30 68 30 73 1 4 6 13 12 20 5 6 33 41 61 77 29 36 71 82 93 103
47 42 139 107 154 107 6 0 12 4 14 8 4 11 114 55 178 72 108 29 195 35 307 19z
m-61 -518 c27 -17 84 -79 84 -92 0 -11 -117 -2 -145 10 -57 24 -147 -3 -224
-70 -29 -24 -26 -27 56 -54 32 -10 59 -19 61 -20 1 -1 -5 -19 -14 -41 -9 -21
-21 -72 -28 -113 l-11 -74 -69 -24 c-39 -12 -78 -23 -87 -23 -10 0 -20 -4 -23
-8 -3 -5 8 -60 23 -123 16 -63 43 -177 61 -254 18 -77 52 -223 77 -324 24
-101 41 -186 39 -188 -2 -3 -13 0 -23 5 -10 6 -82 34 -158 62 -77 29 -237 88
-355 131 -118 44 -221 82 -229 85 -9 3 -10 8 -4 17 6 6 35 68 66 137 98 218
387 854 390 856 3 4 132 -43 157 -56 14 -8 23 -2 45 30 87 125 225 183 311
131z m-58 -117 c21 -6 32 -34 12 -34 -5 0 -28 -18 -51 -41 -41 -41 -41 -41
-62 -22 -12 11 -35 27 -51 37 -30 19 -28 26 19 50 31 16 92 21 133 10z m169
-59 c54 -23 116 -78 153 -135 18 -27 33 -50 34 -50 0 0 37 11 81 25 44 14 85
25 91 25 6 0 25 -35 41 -77 17 -43 69 -177 116 -298 47 -121 124 -318 170
-437 l84 -217 -31 -10 c-122 -38 -371 -115 -471 -146 -139 -43 -425 -134 -440
-141 -6 -2 -33 94 -63 224 -30 125 -67 281 -82 347 -62 257 -120 508 -118 510
2 1 42 14 91 29 l87 28 0 61 c1 205 115 321 257 262z m-792 -1075 c23 -26 4
-26 -26 0 -18 15 -20 19 -8 20 9 0 24 -9 34 -20z m525 -188 l0 -26 -22 22
c-19 19 -21 24 -8 32 20 12 30 3 30 -28z"/>
<path d="M2072 1854 c-10 -11 -10 -14 0 -14 6 0 24 -12 39 -26 21 -20 29 -23
35 -12 4 7 4 10 0 6 -9 -8 -45 21 -54 43 -6 14 -9 15 -20 3z"/>
<path d="M1950 1749 l-25 -9 26 4 c20 2 31 -5 49 -31 12 -18 27 -33 33 -33 6
0 -2 15 -19 33 -16 17 -31 35 -34 38 -3 3 -16 2 -30 -2z"/>
<path d="M1577 1555 c-40 -28 -81 -97 -96 -164 -5 -23 -7 -41 -4 -41 3 0 303
91 383 117 11 3 4 14 -25 40 -88 77 -188 95 -258 48z m210 -69 c-2 -6 -13 -12
-24 -14 -16 -2 -20 3 -20 27 0 29 1 29 24 14 13 -9 22 -21 20 -27z m-88 28
c17 -4 31 -9 31 -13 0 -3 -30 -15 -67 -26 -45 -12 -76 -28 -93 -46 -31 -34
-60 -26 -40 10 9 17 15 20 24 11 10 -8 15 -6 19 9 5 20 61 61 83 61 6 0 26 -3
43 -6z"/>
</g>
</svg>
